<svg xmlns="http://www.w3.org/2000/svg" aria-hidden="true" style="position:absolute;width:0;height:0;overflow:hidden">
  <defs>
    <symbol id="icon-instagram" viewBox="0 0 32 32">
      <path stroke-linecap="round" stroke-linejoin="round" stroke-width="2.667" d="M22.667 2.667H9.334a6.667 6.667 0 0 0-6.667 6.667v13.333a6.667 6.667 0 0 0 6.667 6.667h13.333a6.667 6.667 0 0 0 6.667-6.667V9.334a6.667 6.667 0 0 0-6.667-6.667"/>
      <path stroke-linecap="round" stroke-linejoin="round" stroke-width="2.667" d="M21.334 15.16a5.338 5.338 0 0 1-6.123 6.049 5.334 5.334 0 0 1-3.916-7.663c.504-1.002 1.312-1.82 2.308-2.336s2.129-.706 3.239-.542a5.33 5.33 0 0 1 4.493 4.493zM23.333 8.667h.013"/>
    </symbol>
    <symbol id="icon-twitter" viewBox="0 0 38 32">
<path d="M23 1.01006C22.0424 1.68553 20.9821 2.20217 19.86 2.54006C19.2577 1.84757 18.4573 1.35675 17.567 1.13398C16.6767 0.911216 15.7395 0.967251 14.8821 1.29451C14.0247 1.62177 13.2884 2.20446 12.773 2.96377C12.2575 3.72309 11.9877 4.62239 12 5.54006V6.54006C10.2426 6.58562 8.50127 6.19587 6.93101 5.4055C5.36074 4.61513 4.01032 3.44869 3 2.01006C3 2.01006 -1 11.0101 8 15.0101C5.94053 16.408 3.48716 17.109 1 17.0101C10 22.0101 21 17.0101 21 5.51006C20.9991 5.23151 20.9723 4.95365 20.92 4.68006C21.9406 3.67355 22.6608 2.40277 23 1.01006Z" stroke="#02897A" stroke-width="2" stroke-linecap="round" stroke-linejoin="round"/>
    </symbol>
    <symbol id="icon-close" viewBox="0 0 32 32">
<path d="M32 3.223l-3.223-3.223-12.777 12.777-12.777-12.777-3.223 3.223 12.777 12.777-12.777 12.777 3.223 3.223 12.777-12.777 12.777 12.777 3.223-3.223-12.777-12.777 12.777-12.777z"></path>
</symbol>
    <symbol id="icon-facebook" viewBox="0 0 19 32">
      <path stroke-linecap="round" stroke-linejoin="round" stroke-width="2.909" d="M17.455 1.455h-4.364a7.273 7.273 0 0 0-7.273 7.273v4.364H1.454v5.818h4.364v11.636h5.818V18.91H16l1.455-5.818h-5.818V8.728a1.455 1.455 0 0 1 1.455-1.455h4.364V1.455z"/>
    </symbol>
    <symbol id="icon-Path" viewBox="0 0 43 32">
      <path d="M42.042.638a2.1 2.1 0 0 0-3.017 0L13.466 26.74 3.642 16.707c-.833-.851-2.184-.851-3.017 0s-.833 2.23 0 3.081l11.333 11.574c.833.851 2.184.85 3.017 0L42.042 3.719a2.21 2.21 0 0 0 0-3.081"/>
    </symbol>
    <symbol id="icon-play" viewBox="0 0 29 32">
      <path d="M26.48 13.824c1.269.728 1.269 2.558 0 3.287L2.838 30.681C1.575 31.406 0 30.494 0 29.038V1.898C0 .442 1.575-.47 2.838.255z"/>
    </symbol>
    <symbol id="icon-menu" viewBox="0 0 29 32">
      <path stroke-linecap="round" stroke-linejoin="round" stroke-width="3.097" d="M3.613 16H25.29M3.613 8H25.29M3.613 24H25.29"/>
    </symbol>
    <symbol id="icon-star-full" viewBox="0 0 32 32">
      <path d="M30.814 11.093a1.55 1.55 0 0 0-1.341-1.044l-8.807-.7L16.855.913a1.54 1.54 0 0 0-2.814 0L10.23 9.351l-8.807.7a1.54 1.54 0 0 0-1.331 1.015 1.55 1.55 0 0 0 .374 1.632l6.508 6.345-2.302 9.967a1.54 1.54 0 0 0 .627 1.619c.255.176.557.271.866.274s.613-.088.87-.261l8.412-5.608 8.412 5.608a1.54 1.54 0 0 0 1.766-.038 1.55 1.55 0 0 0 .577-1.669l-2.825-9.887 7.007-6.306c.459-.414.627-1.06.429-1.645z"/>
    </symbol>
    <symbol id="icon-star" viewBox="0 0 32 32">
      <path d="m6.976 19.039-2.302 9.967a1.55 1.55 0 0 0 .623 1.623 1.545 1.545 0 0 0 1.739.011l8.412-5.608 8.412 5.608a1.54 1.54 0 0 0 1.766-.039 1.55 1.55 0 0 0 .577-1.669l-2.825-9.887 7.007-6.306a1.547 1.547 0 0 0-.085-2.367 1.54 1.54 0 0 0-.827-.321l-8.807-.701L16.855.914a1.542 1.542 0 0 0-2.816 0L10.228 9.35l-8.807.7A1.54 1.54 0 0 0 .09 11.065a1.55 1.55 0 0 0 .374 1.632l6.51 6.345zm4.408-6.683a1.54 1.54 0 0 0 1.286-.906l2.779-6.15 2.779 6.15a1.55 1.55 0 0 0 1.286.906l6.136.487-5.053 4.548a1.55 1.55 0 0 0-.453 1.573l1.936 6.774-5.771-3.848a1.54 1.54 0 0 0-1.714 0l-6.031 4.021 1.622-7.023a1.55 1.55 0 0 0-.426-1.452L5.067 12.86z"/>
    </symbol>
    <symbol id="icon-heart" viewBox="0 0 37 32">
      <path d="M18.286 31.347c.327 0 .653-.122.898-.367l12.714-12.245c.184-.184 4.673-4.286 4.673-9.184 0-5.98-3.653-9.551-9.755-9.551-3.571 0-6.918 2.816-8.53 4.408C16.674 2.816 13.327 0 9.755 0 3.653 0 0 3.571 0 9.551c0 4.898 4.49 9 4.653 9.143L17.388 30.98c.245.245.571.367.898.367"/>
    </symbol>
    <symbol id="icon-octopus" viewBox="0 0 41 32">
      <path d="m21.673 11.204 2.674 1.245 3.98-1.184V8.49c0-4.714-3.98-8.49-8.735-8.49-4.735 0-8.735 3.755-8.735 8.429v12.653c0 1.163-.939 2.082-2.082 2.082s-2.082-.918-2.082-2.082v-5.347H-.001v5.429a8.753 8.753 0 0 0 8.755 8.755c4.796 0 8.755-3.857 8.755-8.633V8.796c0-1.143.939-2.082 2.082-2.082s2.082.939 2.082 2.082zm10.817 4.531v5.612c0 1.143-.939 2.061-2.082 2.061s-2.082-.918-2.082-2.061v-5.51l-3.98 1.184-2.674-1.245v5.469c0 4.796 3.939 8.674 8.755 8.674a8.753 8.753 0 0 0 8.755-8.755v-5.429h-6.694z"/>
    </symbol>
    <symbol id="icon-coursor" viewBox="0 0 21 32">
      <path d="M19.042 17.529 1.832.319A1 1 0 0 0 1.076 0C.942 0 .79.034.673.084a1.08 1.08 0 0 0-.672.992v25.277c0 .437.269.824.672.992.118.05.269.084.403.084.286 0 .555-.118.756-.319l5.244-5.244 3.21 7.597a1.08 1.08 0 0 0 1.412.571l2.975-1.261a1.08 1.08 0 0 0 .571-1.412l-3.378-8h6.42c.437 0 .824-.269.992-.672a1.04 1.04 0 0 0-.235-1.16z"/>
    </symbol>
    <symbol id="icon-untitled" viewBox="0 0 28 32">
      <path d="M25.143 2.286h1.714c.321 0 .571-.25.571-.571V.572a.564.564 0 0 0-.571-.571H.571A.564.564 0 0 0 0 .572v1.143c0 .321.25.571.571.571h1.714c0 6.607 3.161 11.393 6.661 13.714-3.5 2.321-6.661 7.107-6.661 13.714H.571a.564.564 0 0 0-.571.571v1.143c0 .321.25.571.571.571h26.286c.321 0 .571-.25.571-.571v-1.143a.564.564 0 0 0-.571-.571h-1.714c0-6.607-3.161-11.393-6.661-13.714 3.5-2.321 6.661-7.107 6.661-13.714m-2.286 0c0 2.607-.589 4.911-1.518 6.857H6.089c-.929-1.946-1.518-4.25-1.518-6.857zM21.839 24H5.589c1.321-3.446 3.696-5.893 6.071-6.857h4.107c2.375.964 4.75 3.411 6.071 6.857z"/>
    </symbol>
    <symbol id="icon-patch-click" viewBox="0 0 32 32">
      <path fill="#404bbf" d="M4 1h24a3 3 0 0 1 3 3v24a3 3 0 0 1-3 3H4a3 3 0 0 1-3-3V4a3 3 0 0 1 3-3" style="fill:var(--color1, #404bbf)"/>
      <path fill="none" stroke="#404bbf" stroke-width="2" d="M4 1h24a3 3 0 0 1 3 3v24a3 3 0 0 1-3 3H4a3 3 0 0 1-3-3V4a3 3 0 0 1 3-3z" style="stroke:var(--color1, #404bbf)"/>
      <path fill="#f4f4fd" d="M22.891 8.51a1.83 1.83 0 0 1 2.558.02 1.855 1.855 0 0 1 .068 2.571L15.728 23.41a1.85 1.85 0 0 1-1.314.591 1.83 1.83 0 0 1-1.336-.542l-6.492-6.527a1.863 1.863 0 0 1-.451-2.046 1.85 1.85 0 0 1 1.017-1.022 1.82 1.82 0 0 1 1.438.026c.225.101.429.247.597.429l5.137 5.163 8.521-10.915a1 1 0 0 1 .049-.054h-.002z" style="fill:var(--color2, #f4f4fd)"/>
    </symbol>
    <symbol id="icon-antenna" viewBox="0 0 32 32">
      <path fill="#2e2f42" d="m30.773 22.098-8.443-8.505.937-4.615c.242.094.499.144.758.146h.006a2.159 2.159 0 1 0-2.008-1.435l-4.96.605L8.972.161a.53.53 0 0 0-.377-.16.53.53 0 0 0-.373.155L6.709 1.66a.534.534 0 0 0 0 .754l.814.826a14.94 14.94 0 0 0 2.519 17.663.5.5 0 0 0 .146.098q-.05.271-.052.547v6.187h-6.4a2.67 2.67 0 0 0-2.667 2.667v1.067c0 .295.239.533.533.533h24.533a.533.533 0 0 0 .533-.533v-1.067a2.67 2.67 0 0 0-2.667-2.667h-6.4v-2.742a15 15 0 0 0 3.049.32 14.85 14.85 0 0 0 7.04-1.783l.818.823a.53.53 0 0 0 .377.16.53.53 0 0 0 .373-.155l1.513-1.504a.534.534 0 0 0 0-.754zM23.28 6.233a1.067 1.067 0 1 1 .753 1.822h-.003a1.067 1.067 0 0 1-.747-1.823h-.002zm-1.256 3.505-.598 2.946-1.175-1.182 1.774-1.763zm-.605-.902-1.92 1.909-1.485-1.493 3.405-.415zM24.004 28.8a1.6 1.6 0 0 1 1.6 1.6v.533H2.137V30.4a1.6 1.6 0 0 1 1.6-1.6zm-7.467-2.133v1.067h-5.333v-1.067zM11.204 25.6v-4.053c0-1.294 1.196-2.347 2.667-2.347s2.667 1.053 2.667 2.347V25.6zm6.4-1.696v-2.357c0-1.882-1.675-3.413-3.733-3.413a3.8 3.8 0 0 0-3.281 1.786A13.87 13.87 0 0 1 8.311 4.033l18.602 18.708a13.82 13.82 0 0 1-9.309 1.163m11.289-.684L7.836 2.039l.755-.752 7.935 7.98c.004 0 .006.007.01.01l13.115 13.191-.757.752z" style="fill:var(--color3, #2e2f42)"/>
      <path fill="#4d5ae5" d="M13.876 20.267h-.005a1.6 1.6 0 1 0-.004 3.2h.005a1.6 1.6 0 1 0 .004-3.2m.373 1.978a.534.534 0 0 1-.752-.756.53.53 0 0 1 .373-.155.534.534 0 0 1 .374.911z" style="fill:var(--color4, #4d5ae5)"/>
    </symbol>
    <symbol id="icon-clock" viewBox="0 0 32 32">
      <path fill="#2e2f42" d="M31.297 15.301C31.295 6.849 24.442-.002 15.989 0S.686 6.855.688 15.308a15.3 15.3 0 0 0 10.649 14.576.662.662 0 0 0 .529-.065.64.64 0 0 0 .283-.356l3.865-12.25a1.912 1.912 0 1 0-.84-3.635l-5.106-5.107a.637.637 0 0 0-.902.902l5.103 5.109a1.876 1.876 0 0 0 .536 2.309l-3.683 11.673C3.844 25.783.118 17.71 2.799 10.432S13.553-.572 20.831 2.109s11.004 10.754 8.323 18.032a14.04 14.04 0 0 1-7.462 7.973l-.398-1.874a.637.637 0 0 0-1.049-.344l-3.837 3.426a.637.637 0 0 0 .231 1.084l4.899 1.564a.638.638 0 0 0 .819-.74l-.391-1.839a15.255 15.255 0 0 0 9.329-14.089zm-15.305-.637a.638.638 0 1 1 0 1.277.638.638 0 0 1 0-1.277m2.101 14.864 2.184-1.948.603 2.84z" style="fill:var(--color3, #2e2f42)"/>
      <path fill="#4d5ae5" d="M15.354 3.185V4.46a.638.638 0 1 0 1.276 0V3.185a.638.638 0 0 0-1.276 0M3.876 14.664a.638.638 0 0 0 0 1.276h1.275a.638.638 0 1 0 0-1.276zM28.108 15.939a.638.638 0 1 0 0-1.276h-1.275a.638.638 0 0 0 0 1.276z" style="fill:var(--color4, #4d5ae5)"/>
    </symbol>
    <symbol id="icon-diagram" viewBox="0 0 32 32">
      <path fill="#4d5ae5" d="M14.925 14.965h1.066v4.798h-1.066zM19.19 17.097h1.066v2.665H19.19zM10.661 18.696h1.066v1.066h-1.066zM7.463 18.163h1.066v1.599H7.463z" style="fill:var(--color4, #4d5ae5)"/>
      <path fill="#2e2f42" d="M1.599 28.291h25.587a1.6 1.6 0 0 0 1.599-1.599V24.56a1.6 1.6 0 0 0-1.599-1.599h-.533V9.668L29.681 6.8a1.608 1.608 0 1 0-.746-.763L26.654 8.2V6.97a1.6 1.6 0 0 0-1.599-1.599H3.733A1.6 1.6 0 0 0 2.134 6.97v15.992h-.533a1.6 1.6 0 0 0-1.599 1.599v2.132a1.6 1.6 0 0 0 1.599 1.599zM30.384 4.837a.533.533 0 1 1 0 1.067.533.533 0 0 1 0-1.067M3.198 6.969c0-.294.239-.533.533-.533h21.322c.294 0 .533.239.533.533v2.239l-1.066 1.013V8.035a.533.533 0 0 0-.533-.533H4.797a.533.533 0 0 0-.533.533v13.326c0 .294.239.533.533.533h19.19a.533.533 0 0 0 .533-.533v-9.674l1.066-1.01v12.284H3.198zm4.798 6.93a1.598 1.598 0 1 0 1.107 2.749l1.853.93a.53.53 0 0 0 .636-.123l3.939-4.431 3.872 2.901a.53.53 0 0 0 .686-.039l3.365-3.188v8.131H5.33V8.569h18.124v2.66l-3.771 3.572-3.904-2.927a.533.533 0 0 0-.718.072l-3.993 4.493-1.493-.746q.017-.096.02-.193a1.6 1.6 0 0 0-1.599-1.599zm.533 1.599a.533.533 0 1 1-1.067 0 .533.533 0 0 1 1.067 0m3.198 8.529h5.331v.533a.533.533 0 0 1-.533.533h-4.264a.533.533 0 0 1-.533-.533zm-10.661.533c0-.294.239-.533.533-.533h9.062v.533a1.6 1.6 0 0 0 1.599 1.599h4.264a1.6 1.6 0 0 0 1.599-1.599v-.533h9.062c.294 0 .533.239.533.533v2.132a.533.533 0 0 1-.533.533H1.598a.533.533 0 0 1-.533-.533z" style="fill:var(--color3, #2e2f42)"/>
    </symbol>
    <symbol id="icon-astronaut" viewBox="0 0 32 32">
      <path fill="#4d5ae5" d="M31.974 4.524a.53.53 0 0 0-.43-.363l-1.91-.278-.855-1.731c-.179-.365-.777-.365-.956 0l-.855 1.731-1.91.278a.535.535 0 0 0-.296.91l1.383 1.348-.326 1.903c-.034.2.048.402.212.522a.53.53 0 0 0 .562.04l1.709-.899 1.709.899a.536.536 0 0 0 .775-.563l-.326-1.903 1.383-1.348a.54.54 0 0 0 .135-.547zm-2.463 1.327a.53.53 0 0 0-.153.472l.191 1.114-1-.526a.53.53 0 0 0-.498 0l-1.001.526.191-1.114a.53.53 0 0 0-.153-.472l-.81-.789 1.119-.163a.53.53 0 0 0 .402-.292l.5-1.013.5 1.013a.54.54 0 0 0 .402.292l1.119.163zM26.133 20.522h-1.067v1.067h1.067zM26.133 22.656h-1.067v1.067h1.067zM27.2 21.589h-1.067v1.067H27.2zM25.067 21.589H24v1.067h1.067zM22.4 26.389h-1.067v1.067H22.4zM22.4 28.522h-1.067v1.067H22.4zM23.467 27.456H22.4v1.067h1.067zM21.333 27.456h-1.067v1.067h1.067zM16 24.256h-1.067v1.067H16zM16 26.389h-1.067v1.067H16zM17.067 25.322H16v1.067h1.067zM14.933 25.322h-1.067v1.067h1.067zM5.867 6.122H4.8v1.067h1.067zM5.867 8.255H4.8v1.067h1.067z" style="fill:var(--color4, #4d5ae5)"/>
      <path fill="#4d5ae5" d="M6.933 7.189H5.866v1.067h1.067zM4.8 7.189H3.733v1.067H4.8z" style="fill:var(--color4, #4d5ae5)"/>
      <path fill="#2e2f42" d="M24.715 14.159a1.78 1.78 0 0 0-1.188-.705 1.78 1.78 0 0 0-1.34.352l-1.252.96-1.898 1.417-1.358-.541c2.421-1.086 4.114-3.508 4.114-6.32 0-3.823-3.123-6.933-6.961-6.933s-6.961 3.11-6.961 6.933a6.86 6.86 0 0 0 1.12 3.758l-2.764-.024h-.005q-.012.002-.023.005a.5.5 0 0 0-.155.031l-.038.013q-.01.003-.019.006l-3.233 1.596-.001.001-1.893.911a.4.4 0 0 0-.063.035 1.78 1.78 0 0 0-.598 2.295c.22.429.595.745 1.056.889q.268.083.539.083c.29 0 .577-.071.839-.211l1.388-.738 2.264-1.169 1.357-.008L2.2 22.211l-.002.001-1.339 1.333c-.316.315-.49.732-.49 1.178s.174.863.49 1.179c.325.323.752.485 1.179.485s.854-.162 1.18-.485l1.314-1.309 1.741-1.3.901.897-1.762 1.754-.002.001-1.339 1.333c-.316.315-.49.732-.49 1.178s.174.863.49 1.179c.325.323.753.485 1.18.485s.855-.162 1.18-.485l3.482-3.467.001-.002 1.01-1-.004-.004q.01-.008.022-.015l5.166-5.658 3.471.494q.037.006.075.005a.5.5 0 0 0 .187-.038q.026-.01.05-.023c.019-.01.039-.015.058-.027l3.213-2.133c.012-.008.018-.021.029-.029.013-.01.029-.014.041-.026l1.271-1.191c.662-.62.753-1.635.212-2.362M2.13 17.77a.71.71 0 0 1-.558.052.717.717 0 0 1-.213-1.26l1.314-.632.449 1.313zm3.498-1.828-1.548.8-.439-1.283 2.027-1.001zm15.099-6.62a5.8 5.8 0 0 1-.599 2.559l-4.181-1.899a1.86 1.86 0 0 0-.788-1.388l1.464-4.86c2.378.756 4.105 2.974 4.105 5.588zm-11.789 0c0-3.235 2.644-5.867 5.894-5.867.253 0 .5.021.745.052l-1.432 4.754c-.019-.001-.037-.006-.057-.006-1.033 0-1.873.837-1.873 1.867s.84 1.867 1.873 1.867c.694 0 1.294-.383 1.618-.945l3.862 1.755a5.9 5.9 0 0 1-4.737 2.39c-3.25 0-5.894-2.632-5.894-5.867zm5.956.8c0 .441-.362.8-.806.8s-.806-.359-.806-.8.362-.8.806-.8.806.359.806.8M2.465 25.146a.61.61 0 0 1-.854.001.59.59 0 0 1 0-.844l.962-.958.851.848-.959.955zm3.214 3.734a.61.61 0 0 1-.855.001.59.59 0 0 1 0-.844l.963-.959.852.848-.96.955zm3.481-3.469-.002.001-1.765 1.76-.852-.848 1.763-1.755.002-.001c.04-.04.065-.088.09-.135.007-.014.02-.026.026-.04.017-.041.019-.085.026-.129.003-.025.014-.047.014-.073 0-.036-.013-.07-.02-.106-.006-.032-.006-.065-.019-.095a.6.6 0 0 0-.091-.138c-.01-.012-.014-.027-.025-.038h-.001l-.001-.002-1.607-1.6c-.017-.017-.039-.024-.058-.038a.5.5 0 0 0-.087-.058.5.5 0 0 0-.093-.033.5.5 0 0 0-.103-.02.5.5 0 0 0-.095.005.5.5 0 0 0-.104.02.5.5 0 0 0-.094.045c-.02.011-.042.015-.061.029L4.23 23.486l-.901-.897 2.399-2.386 4.361 4.289zm6.819-7.017c-.015-.002-.03.004-.045.003a.56.56 0 0 0-.3.075.5.5 0 0 0-.083.061c-.013.011-.028.017-.04.029l-4.698 5.146-4.328-4.257 2.833-2.818a.534.534 0 0 0-.379-.911v-.001l-2.219.013.028-1.607 3.104.027a6.95 6.95 0 0 0 4.981 2.101c.437 0 .864-.045 1.279-.123.04.032.079.065.13.085l2.41.96.152.758.178.885zm4.041.178-.313-1.558 1.446-1.08.947 1.257zm3.754-2.831-.838.785-.931-1.236.831-.637a.74.74 0 0 1 .543-.143.72.72 0 0 1 .48.284.713.713 0 0 1-.085.947" style="fill:var(--color3, #2e2f42)"/>
      <path fill="#2e2f42" d="m13.602 18.544-2.143-2.133a.534.534 0 0 0-.753 0l-2.142 2.133a.537.537 0 0 0 0 .756l2.142 2.133a.536.536 0 0 0 .753 0l2.143-2.133a.535.535 0 0 0 0-.756m-2.519 1.759-1.387-1.381 1.387-1.381 1.387 1.381zM17.164 5.071l-.258 1.036c.071.018 1.738.452 1.738 2.149h1.067c0-2.017-1.666-2.965-2.547-3.185M19.711 9.322h-1.067v1.067h1.067z" style="fill:var(--color3, #2e2f42)"/>
    </symbol>
    <symbol id="icon-linkedin" viewBox="0 0 32 32">
      <path d="M31.992 32v-.001H32V20.263c0-5.741-1.236-10.164-7.948-10.164-3.227 0-5.392 1.771-6.276 3.449h-.093v-2.913h-6.364v21.364h6.627V21.42c0-2.785.528-5.479 3.977-5.479 3.399 0 3.449 3.179 3.449 5.657v10.401h6.62zM.528 10.636h6.635V32H.528zM3.843 0C1.722 0 0 1.721 0 3.843s1.721 3.879 3.843 3.879 3.843-1.757 3.843-3.879A3.846 3.846 0 0 0 3.843 0"/>
    </symbol>
  </defs>
</svg>
